<svg width="34" height="34" viewBox="0 0 34 34" fill="none" xmlns="http://www.w3.org/2000/svg">
<path d="M7.87668 19.2572L17 28.3333L26.1233 19.2572C26.231 19.1752 26.3198 19.0711 26.3837 18.9518C26.4475 18.8326 26.4851 18.701 26.4937 18.566C26.5023 18.4309 26.4818 18.2956 26.4336 18.1692C26.3854 18.0428 26.3105 17.9282 26.2142 17.8332C26.1178 17.7383 26.0022 17.6651 25.8751 17.6187C25.748 17.5723 25.6125 17.5537 25.4776 17.5642C25.3427 17.5748 25.2116 17.6142 25.0933 17.6798C24.975 17.7454 24.8721 17.8356 24.7917 17.9444L17.9445 24.735L17.9445 6.66776C17.9445 6.41727 17.845 6.17705 17.6678 5.99994C17.4907 5.82282 17.2505 5.72331 17 5.72331C16.7495 5.72331 16.5093 5.82282 16.3322 5.99994C16.1551 6.17705 16.0556 6.41727 16.0556 6.66776L16.0556 24.735L9.20835 17.9444C9.03051 17.7678 8.7898 17.6691 8.53918 17.67C8.28855 17.6709 8.04855 17.7713 7.87196 17.9491C7.69537 18.127 7.59666 18.3677 7.59754 18.6183C7.59843 18.8689 7.69884 19.1089 7.87668 19.2855L7.87668 19.2572Z" fill="#3A3A3A"/>
</svg>
