<svg width="24" height="24" viewBox="0 0 24 24" fill="none" xmlns="http://www.w3.org/2000/svg">
<path d="M7 20C6.16667 20 5.45833 19.7083 4.875 19.125C4.29167 18.5417 4 17.8333 4 17H1.5L1.95 15H4.775C5.05833 14.6833 5.39167 14.4377 5.775 14.263C6.15833 14.0883 6.56667 14.0007 7 14C7.43333 13.9993 7.84167 14.087 8.225 14.263C8.60833 14.439 8.94167 14.6847 9.225 15H13.4L15.5 6H4.55L4.65 5.575C4.75 5.10833 4.979 4.72933 5.337 4.438C5.695 4.14667 6.116 4.00067 6.6 4H18L17.075 8H20L23 12L22 17H20C20 17.8333 19.7083 18.5417 19.125 19.125C18.5417 19.7083 17.8333 20 17 20C16.1667 20 15.4583 19.7083 14.875 19.125C14.2917 18.5417 14 17.8333 14 17H10C10 17.8333 9.70833 18.5417 9.125 19.125C8.54167 19.7083 7.83333 20 7 20ZM15.925 13H20.75L20.85 12.475L19 10H16.625L15.925 13ZM15.45 6.175L15.5 6L13.4 15L13.45 14.825L14.3 11.175L15.45 6.175ZM0.5 13.325L1 11.325H6.5L6 13.325H0.5ZM2.5 9.675L3 7.675H9.5L9 9.675H2.5ZM7 18C7.28333 18 7.521 17.904 7.713 17.712C7.905 17.52 8.00067 17.2827 8 17C7.99933 16.7173 7.90333 16.48 7.712 16.288C7.52067 16.096 7.28333 16 7 16C6.71667 16 6.47933 16.096 6.288 16.288C6.09667 16.48 6.00067 16.7173 6 17C5.99933 17.2827 6.09533 17.5203 6.288 17.713C6.48067 17.9057 6.718 18.0013 7 18ZM17 18C17.2833 18 17.521 17.904 17.713 17.712C17.905 17.52 18.0007 17.2827 18 17C17.9993 16.7173 17.9033 16.48 17.712 16.288C17.5207 16.096 17.2833 16 17 16C16.7167 16 16.4793 16.096 16.288 16.288C16.0967 16.48 16.0007 16.7173 16 17C15.9993 17.2827 16.0953 17.5203 16.288 17.713C16.4807 17.9057 16.718 18.0013 17 18Z" fill="#617fb2"/>
</svg>
